<svg width="50" height="16" viewBox="0 0 50 16" fill="none" xmlns="http://www.w3.org/2000/svg">
<path d="M28.2021 7.38206C28.2021 10.7124 27.4431 12.9733 25.9261 14.1668C25.2922 14.6682 24.6076 15.0099 23.8712 15.1943C23.1338 15.3787 22.1699 15.4703 20.9764 15.4703H0.353631L0.287865 14.6973C0.346084 14.6531 0.649043 14.5571 1.19351 14.4094C1.73797 14.2628 2.06249 14.1884 2.16599 14.1884C2.07758 8.44187 2.00319 4.16919 1.94497 1.37032C1.28191 1.28191 0.633949 1.1051 0 0.839875C0.0291099 0.339616 0.0657668 0.059298 0.109971 0H20.6885C22.2206 0 23.4324 0.140159 24.324 0.420476C25.2157 0.700794 25.993 1.21615 26.6561 1.96761C27.6868 3.10182 28.2032 4.90664 28.2032 7.38206H28.2021ZM26.0588 7.55887C26.0588 5.56969 25.6868 4.07107 24.9429 3.06193C24.199 2.05279 22.9505 1.54822 21.1963 1.54822H3.93415C3.87485 4.25975 3.80154 8.39982 3.71313 13.9684H21.0422C23.0604 13.9684 24.4016 13.5156 25.0647 12.6089C25.7278 11.7033 26.0588 10.0192 26.0588 7.55887Z" fill="white"/>
<path d="M36.8359 1.4097L36.6208 13.9197L49.8527 14.0959C49.8527 14.5074 49.731 14.9479 49.4875 15.4175H20.5L22.2491 14.6471C22.9082 14.4128 34.3614 14.2366 35.0068 14.1184C34.9774 13.1643 34.9312 11.197 34.8672 8.21534C34.8032 5.23478 34.7486 2.92899 34.7056 1.29903C34.1316 1.18191 22.6867 1.0057 21.97 0.77039L21.9636 0.0357541L49.6365 0C49.88 0.470615 50.0017 0.911145 50.0017 1.32159C49.2703 1.38069 37.2651 1.4097 36.8349 1.4097H36.8359Z" fill="white"/>
</svg>
