<svg width="1344" height="265" viewBox="0 0 1344 265" fill="none" xmlns="http://www.w3.org/2000/svg">
<path d="M208.232 54.5057C208.232 79.0958 202.627 95.789 191.427 104.601C186.746 108.303 181.691 110.826 176.254 112.188C170.809 113.549 163.692 114.226 154.88 114.226H2.61105L2.12546 108.518C2.55533 108.192 4.79224 107.483 8.81231 106.392C12.8324 105.31 15.2285 104.761 15.9927 104.761C15.3399 62.3309 14.7907 30.7834 14.3608 10.1178C9.46507 9.46507 4.68079 8.15954 0 6.20125C0.214934 2.50757 0.485592 0.437829 0.811974 0H152.755C164.067 0 173.014 1.03487 179.598 3.10461C186.181 5.17434 191.92 8.97948 196.816 14.528C204.426 22.9024 208.239 36.2284 208.239 54.5057H208.232ZM192.406 55.8113C192.406 41.1241 189.66 30.059 184.167 22.6079C178.674 15.1568 169.456 11.4313 156.504 11.4313H29.048C28.6101 31.452 28.0688 62.0205 27.4161 103.137H155.366C170.268 103.137 180.171 99.7932 185.066 93.0984C189.962 86.4115 192.406 73.9772 192.406 55.8113Z" fill="black"/>
<path d="M1166.44 11.7055L1165.63 51.0305H1317.4L1318.71 39.2808C1321.75 39.2808 1325.01 40.2042 1328.5 42.059V73.0653L1322.79 73.5588C1321.16 68.878 1320.07 64.9694 1319.53 61.8091H1165.63C1165.41 71.2741 1165.19 85.2528 1164.98 103.745H1328.33L1332.25 88.4052L1341.72 89.058C1343.24 95.2592 1344 100.728 1344 105.457C1344 110.185 1343.89 113.266 1343.67 114.675H1138.37L1137.89 108.967C1142.67 107.232 1147.3 105.974 1151.75 105.218C1151.1 62.7882 1150.55 31.2406 1150.12 10.5751C1147.73 10.3602 1142.94 9.05465 1135.76 6.65853L1136.57 0.457275H1341.22C1341.44 1.87425 1341.55 4.04747 1341.55 6.98491C1341.55 12.9712 1340.78 19.4431 1339.26 26.4006C1336.87 26.9499 1333.72 27.2126 1329.8 27.2126L1325.88 11.7135H1166.43L1166.44 11.7055Z" fill="black"/>
<path d="M1116.76 96.5691C1117.36 100.924 1117.66 104.593 1117.66 107.586C1117.66 110.58 1117.49 112.944 1117.17 114.687H911.134L910.648 108.98C915.759 107.133 920.384 105.875 924.515 105.23C923.862 62.3707 923.313 30.7674 922.883 10.4203C920.049 9.9904 915.265 8.68487 908.523 6.50369L909.335 0.469604H948.66C950.506 3.51849 951.43 6.72658 951.43 10.0939C945.555 10.3168 941.312 10.476 938.701 10.5874C938.478 31.4759 938.295 50.4856 938.128 67.6167C937.961 84.7477 937.825 96.8 937.722 103.757H1101.98L1105.9 88.2583C1111.33 88.2583 1114.49 88.529 1115.36 89.0703C1115.69 89.7231 1116.15 92.2227 1116.75 96.5771L1116.76 96.5691Z" fill="black"/>
<path d="M881.035 63.6386C885.875 68.7493 888.295 75.9058 888.295 85.1002C888.295 94.2946 884.68 101.475 877.444 106.641C870.208 111.808 859.629 114.395 845.706 114.395H682.507L682.021 108.687C686.591 106.84 691.263 105.535 696.056 104.771C695.403 62.7789 694.854 31.287 694.424 10.2871C690.722 9.63438 685.938 8.32885 680.063 6.37056C680.389 2.3505 680.66 0.280759 680.875 0.169312H840.324C854.9 0.169312 864.803 1.41911 870.025 3.91872C872.525 5.1128 875.024 6.68898 877.532 8.64727C882.531 12.5639 885.039 19.0358 885.039 28.063C885.039 32.6324 884.251 36.74 882.674 40.3859C881.098 44.0318 879.06 46.8339 876.553 48.7922C871.983 52.3824 867.908 54.3964 864.317 54.8263C870.622 55.5905 876.202 58.528 881.042 63.6386H881.035ZM846.518 61.8475H709.915C709.692 71.2011 709.477 85.0206 709.262 103.298H845.045C863.099 103.298 872.135 96.5554 872.135 83.0623C872.135 75.2291 870.041 69.7364 865.854 66.584C861.667 63.4316 855.218 61.8554 846.518 61.8554V61.8475ZM838.684 11.5847L710.409 11.7519C710.186 21.7662 710.082 34.7578 710.082 50.7505H844.559C854.128 50.7505 860.52 48.9276 863.736 45.2816C866.944 41.6357 868.552 35.8484 868.552 27.9038C868.552 17.0297 858.602 11.5847 838.692 11.5847H838.684Z" fill="black"/>
<path d="M605.319 114.23C599.118 114.23 500.702 113.752 496.133 112.789C491.563 111.826 487.161 110.059 482.918 107.496C474.106 102.361 469.56 92.1476 469.29 76.8554C469.019 61.5633 468.446 39.0986 467.578 9.47752C463.224 8.62574 458.328 7.33614 452.891 5.62462L453.385 0.0124512H494.341C496.188 3.43548 497.112 6.64357 497.112 9.63673C493.959 9.85167 489.446 10.0666 483.571 10.2815C483.348 22.692 483.244 41.2958 483.244 66.1087C483.244 87.5862 489.279 92.1874 490.831 94.0263C498.982 103.667 510.549 103.173 557.007 103.698C605.112 104.24 616.4 105.044 624.902 95.6343C630.697 89.2181 633.714 81.4407 633.714 65.7983C633.714 65.6948 633.221 47.1865 632.242 10.2895C623.756 7.82969 618.86 6.27739 617.554 5.64055L618.048 0.0283722H658.519C660.255 4.41462 661.13 7.56699 661.13 9.49344C654.276 9.49344 649.874 9.54916 647.916 9.65265C647.693 18.2102 647.454 30.3261 647.184 45.9925C646.913 61.6588 646.722 71.9597 646.61 76.8714C646.284 89.0669 642.471 98.3409 635.187 104.709C627.895 111.078 617.945 114.254 605.327 114.254L605.319 114.23Z" fill="black"/>
<path d="M426.75 13.7878C419.41 4.60131 406.841 0.00012207 389.057 0.00012207C382.163 0.00012207 359.627 0.756372 334.137 2.26091C308.647 0.756372 286.111 0.00012207 279.217 0.00012207C261.433 0.00012207 248.864 4.59335 241.524 13.7878C234.185 22.9822 230.507 36.8733 230.507 55.4611C230.507 74.049 234.455 88.4973 242.336 98.7903C250.225 109.083 262.787 114.234 280.029 114.234C286.525 114.234 307.875 113.557 332.37 112.196C357.238 113.589 381.661 114.234 388.237 114.234C405.479 114.234 418.041 109.091 425.93 98.7903C433.819 88.4973 437.759 74.0569 437.759 55.4611C437.759 36.8653 434.089 22.9822 426.742 13.7878H426.75ZM388.81 12.4504C410.781 12.4504 421.774 27.3923 421.774 57.2761C421.774 87.16 410.789 102.102 388.81 102.102C383.604 102.102 359.252 104.594 333.516 103.208C307.788 104.594 284.662 102.102 279.456 102.102C257.485 102.102 246.492 87.16 246.492 57.2761C246.492 27.3923 257.477 12.4504 279.456 12.4504" fill="black"/>
<path d="M1249.71 161.371C1249.16 179.648 1248.55 209.062 1247.89 252.789L1274.15 254.095C1274.15 257.144 1273.22 260.407 1271.38 263.886H1203.63L1203.14 258.179C1209.45 255.894 1232.12 254.588 1235.83 254.262C1234.74 212.27 1233.87 182.37 1233.22 161.371H1154.99L1151.07 176.424L1141.61 175.771C1139.97 169.14 1139.16 162.389 1139.16 155.535C1139.16 154.23 1139.26 152.272 1139.49 149.661H1343.09C1343.31 151.078 1343.42 153.251 1343.42 156.188C1343.42 162.063 1342.66 168.479 1341.14 175.445C1338.74 176.098 1335.59 176.424 1331.67 176.424L1327.6 161.371H1249.71Z" fill="black"/>
<path d="M950.486 163.239C944.285 163.104 935.719 166.583 932.073 171.598C916.773 192.622 918.031 233.873 939.174 247.764C944.181 251.052 948.87 252.135 955.159 252.135C963.095 252.135 1098.81 251.315 1102.84 249.683C1103.93 249.142 1105.51 248.322 1107.57 247.231L1110.99 227.648L1120.46 228.134C1122.09 239.342 1122.9 248.425 1122.9 255.383C1120.62 257.126 1115.7 259.029 1108.14 261.09C1100.57 263.152 963.199 264.195 955.477 264.195C923.492 264.195 907.499 244.126 907.499 203.982C907.499 184.948 911.256 177.122 919.042 167.219C926.819 157.325 939.373 149.707 956.456 149.707C970.164 149.707 1114.47 145.328 1122.83 156.473C1122.83 162.563 1121.97 174.949 1120.45 184.303C1118.92 184.629 1115.77 184.797 1110.99 184.797L1106.09 164.561L950.47 163.231L950.486 163.239Z" fill="black"/>
<path d="M741.972 150.085C750.673 149.273 813.632 148.859 820.765 148.859C827.898 148.859 833.414 149.185 837.331 149.838C837.434 150.276 837.498 150.793 837.498 151.39C837.498 151.987 837.196 151.788 836.599 153.962C836.001 156.143 835.54 157.552 835.213 158.204C834.338 159.072 820.789 159.733 820.749 160.163L890.881 251.995L906.38 253.301C906.38 256.35 905.457 259.614 903.61 263.092H864.484L863.999 257.385C866.498 256.079 867.756 254.933 872.54 253.962L856.261 230.629H704.923L686.726 252.799L695.164 253.309C695.164 256.358 694.24 259.622 692.394 263.1H654.86L654.374 257.393C658.617 255.872 663.131 254.678 667.915 253.802L746.318 159.685C736.638 158.603 729.267 157.297 725.35 155.769L726.003 152.306C727.961 151.653 733.287 150.921 741.996 150.101L741.972 150.085ZM712.486 220.177H848.531L808.012 160.656C807.359 160.553 761.849 160.489 760.647 160.489" fill="black"/>
<path d="M627.391 149.661C641.203 149.661 651.464 151.921 658.151 156.435C664.837 160.949 668.189 168.917 668.189 180.34C668.189 191.764 664.869 200.823 658.238 207.51C651.599 214.197 640.884 217.548 626.094 217.548H494.57L494.076 252.956L510.913 254.095C510.913 257.144 509.989 260.407 508.142 263.886H467.321L466.835 258.338C471.405 256.602 476.077 255.297 480.87 254.421C480.217 211.992 479.668 180.444 479.238 159.778C476.3 159.237 471.508 157.932 464.877 155.862L465.689 149.661H627.399H627.391ZM645.828 199.844C650.723 195.219 653.167 189.105 653.167 181.487C653.167 173.869 650.771 168.567 645.987 165.574C641.195 162.581 633.529 161.084 622.981 161.084C621.023 161.084 499.887 161.14 495.215 161.251C495.215 161.363 495.047 176.647 494.729 207.104L624.454 206.937C633.807 206.833 640.932 204.461 645.828 199.836V199.844Z" fill="black"/>
<path d="M419.755 160.909L437.54 252.781L452.957 254.246C452.957 257.183 452 260.009 450.078 263.488H413.389L412.878 258.163C416.268 256.754 420.445 255.607 425.416 254.74L402.425 163.193L342.299 255.536H324.717L262.215 162.867L246.871 252.781L261.266 254.087C261.266 257.136 260.309 260.017 258.387 263.496H219.428L218.917 258.171C223.888 256.435 228.852 255.13 233.823 254.254L248.729 159.611C241.835 158.632 236.361 157.486 232.298 156.188L232.979 149.661H273.261L332.681 242.799H333.362L395.377 149.661H433.315C435.237 153.147 436.194 156.515 436.194 159.778C428.854 160.543 423.372 160.917 419.763 160.917L419.755 160.909Z" fill="black"/>
<path d="M109.763 160.069L108.175 252.437L205.873 253.738C205.873 256.777 204.975 260.029 203.177 263.496H2.54146L2.06106 257.808C6.92703 256.078 91.4926 254.777 96.2578 253.905C96.0409 246.86 95.7 232.334 95.2273 210.319C94.7547 188.312 94.3517 171.287 94.0341 159.252C89.7957 158.387 5.29213 157.086 0 155.349L0.47265 149.661H204.277C206.075 153.135 206.974 156.388 206.974 159.419C201.573 159.855 112.932 160.069 109.755 160.069H109.763Z" fill="black"/>
</svg>
