<svg width="490" height="21" viewBox="0 0 490 21" fill="none" xmlns="http://www.w3.org/2000/svg">
<path d="M36.345 9.57051C36.345 13.8625 35.3668 16.7762 33.4119 18.3143C32.5949 18.9604 31.7126 19.4008 30.7636 19.6384C29.8132 19.876 28.5711 19.9941 27.033 19.9941H0.455737L0.370981 18.9979C0.446011 18.9409 0.836444 18.8172 1.53811 18.6269C2.23978 18.4379 2.658 18.3421 2.79139 18.3421C2.67745 10.9363 2.58158 5.42998 2.50655 1.82299C1.65205 1.70905 0.816992 1.48118 0 1.13938C0.0375149 0.494681 0.0847559 0.133426 0.141723 0.0570068H26.662C28.6364 0.0570068 30.1981 0.237634 31.3472 0.598889C32.4963 0.960144 33.498 1.6243 34.3526 2.59274C35.6809 4.05443 36.3464 6.38036 36.3464 9.57051H36.345ZM33.5828 9.79838C33.5828 7.23486 33.1034 5.30354 32.1447 4.00302C31.186 2.7025 29.577 2.05224 27.3164 2.05224H5.07007C4.99365 5.54669 4.89917 10.8821 4.78524 18.0586H27.1177C29.7188 18.0586 31.4472 17.475 32.3017 16.3065C33.1562 15.1394 33.5828 12.9691 33.5828 9.79838Z" fill="#121212"/>
<path d="M203.598 2.10146L203.456 8.96531H229.947L230.175 6.91449C230.706 6.91449 231.276 7.07567 231.884 7.39941V12.8113L230.888 12.8974C230.603 12.0804 230.413 11.3982 230.318 10.8466H203.456C203.417 12.4987 203.38 14.9385 203.342 18.1662H231.855L232.539 15.4887L234.191 15.6027C234.456 16.685 234.59 17.6396 234.59 18.4649C234.59 19.2902 234.57 19.828 234.533 20.0739H198.699L198.614 19.0777C199.449 18.7748 200.257 18.5552 201.035 18.4232C200.921 11.0175 200.825 5.51115 200.75 1.90416C200.332 1.86665 199.496 1.63878 198.243 1.22056L198.385 0.138184H234.105C234.142 0.385504 234.162 0.764822 234.162 1.27753C234.162 2.32239 234.028 3.452 233.763 4.66637C233.345 4.76224 232.794 4.8081 232.111 4.8081L231.427 2.10285H203.597L203.598 2.10146Z" fill="#121212"/>
<path d="M194.918 16.9115C195.022 17.6715 195.075 18.3121 195.075 18.8345C195.075 19.3569 195.045 19.7696 194.988 20.0739H159.027L158.942 19.0777C159.834 18.7553 160.641 18.5358 161.363 18.4232C161.249 10.9425 161.153 5.4264 161.078 1.87499C160.583 1.79996 159.748 1.57209 158.571 1.19138L158.713 0.138184H165.577C165.899 0.67034 166.06 1.23028 166.06 1.81802C165.035 1.85692 164.294 1.88471 163.839 1.90416C163.8 5.55006 163.768 8.86804 163.739 11.8581C163.709 14.8482 163.686 16.9518 163.668 18.1662H192.337L193.021 15.4609C193.97 15.4609 194.52 15.5082 194.673 15.6027C194.73 15.7166 194.811 16.1529 194.915 16.9129L194.918 16.9115Z" fill="#121212"/>
<path d="M153.774 11.1642C154.619 12.0562 155.041 13.3053 155.041 14.9101C155.041 16.5149 154.41 17.7682 153.147 18.67C151.884 19.5717 150.038 20.0233 147.608 20.0233H119.123L119.038 19.027C119.835 18.7047 120.651 18.4768 121.488 18.3434C121.374 11.0141 121.278 5.51751 121.203 1.85216C120.557 1.73823 119.722 1.51036 118.696 1.16856C118.753 0.466889 118.8 0.105634 118.838 0.0861816H146.668C149.212 0.0861816 150.941 0.304324 151.852 0.740609C152.289 0.949025 152.725 1.22413 153.163 1.56594C154.035 2.24954 154.473 3.37916 154.473 4.95479C154.473 5.75232 154.335 6.46928 154.06 7.10564C153.785 7.74201 153.429 8.23109 152.992 8.57289C152.194 9.19953 151.483 9.55106 150.856 9.62609C151.957 9.75947 152.931 10.2722 153.775 11.1642H153.774ZM147.749 10.8516H123.907C123.868 12.4842 123.83 14.8962 123.793 18.0864H147.492C150.644 18.0864 152.221 16.9095 152.221 14.5544C152.221 13.1872 151.855 12.2285 151.124 11.6783C150.393 11.1281 149.268 10.853 147.749 10.853V10.8516ZM146.382 2.07864L123.993 2.10782C123.954 3.85574 123.936 6.12331 123.936 8.91469H147.408C149.078 8.91469 150.193 8.59651 150.755 7.96015C151.315 7.32378 151.595 6.31366 151.595 4.927C151.595 3.02902 149.859 2.07864 146.384 2.07864H146.382Z" fill="#121212"/>
<path d="M105.649 19.9952C104.567 19.9952 87.3894 19.9118 86.5919 19.7437C85.7944 19.5755 85.026 19.2671 84.2854 18.8197C82.7473 17.9235 81.9539 16.1408 81.9067 13.4717C81.8595 10.8026 81.7594 6.88161 81.608 1.71149C80.8479 1.56282 79.9934 1.33773 79.0444 1.039L79.1306 0.0594482H86.2793C86.6016 0.656908 86.7628 1.21685 86.7628 1.73928C86.2126 1.7768 85.4248 1.81431 84.3994 1.85183C84.3604 4.01797 84.3424 7.26509 84.3424 11.596C84.3424 15.3447 85.3956 16.1478 85.6665 16.4688C87.0893 18.1514 89.1082 18.0652 97.217 18.1569C105.613 18.2514 107.584 18.3917 109.068 16.7494C110.079 15.6295 110.606 14.272 110.606 11.5418C110.606 11.5237 110.519 8.29328 110.349 1.85322C108.867 1.42388 108.013 1.15294 107.785 1.04178L107.871 0.0622271H114.935C115.238 0.827809 115.391 1.37803 115.391 1.71427C114.195 1.71427 113.426 1.724 113.084 1.74206C113.045 3.23571 113.004 5.35044 112.957 8.08486C112.909 10.8193 112.876 12.6172 112.857 13.4745C112.8 15.6031 112.134 17.2218 110.863 18.3334C109.59 19.4449 107.853 19.9993 105.651 19.9993L105.649 19.9952Z" fill="#121212"/>
<path d="M74.483 2.46352C73.2019 0.860104 71.008 0.0570068 67.904 0.0570068C66.7007 0.0570068 62.7672 0.189004 58.3182 0.451608C53.8692 0.189004 49.9357 0.0570068 48.7325 0.0570068C45.6284 0.0570068 43.4345 0.858715 42.1535 2.46352C40.8724 4.06832 40.2305 6.4929 40.2305 9.73725C40.2305 12.9816 40.9196 15.5034 42.2952 17.3C43.6721 19.0965 45.8647 19.9955 48.8742 19.9955C50.008 19.9955 53.7344 19.8774 58.0098 19.6398C62.3504 19.8829 66.6132 19.9955 67.7609 19.9955C70.7704 19.9955 72.9629 19.0979 74.3399 17.3C75.7168 15.5034 76.4046 12.983 76.4046 9.73725C76.4046 6.49151 75.764 4.06832 74.4816 2.46352H74.483ZM67.8609 2.23009C71.6958 2.23009 73.6146 4.83807 73.6146 10.054C73.6146 15.27 71.6971 17.878 67.8609 17.878C66.9522 17.878 62.7019 18.3129 58.2098 18.0711C53.7192 18.3129 49.6828 17.878 48.7741 17.878C44.9393 17.878 43.0205 15.27 43.0205 10.054C43.0205 4.83807 44.9379 2.23009 48.7741 2.23009" fill="#121212"/>
<path d="M473.641 2.1834C473.545 5.37355 473.438 10.5075 473.324 18.1397L477.906 18.3676C477.906 18.8998 477.745 19.4694 477.423 20.0766H465.597L465.512 19.0804C466.613 18.6816 470.571 18.4538 471.217 18.3968C471.027 11.0675 470.876 5.84874 470.762 2.1834H457.108L456.424 4.81083L454.772 4.6969C454.487 3.53949 454.346 2.36124 454.346 1.16493C454.346 0.937067 454.364 0.595263 454.402 0.139526H489.94C489.978 0.386847 489.997 0.766164 489.997 1.27887C489.997 2.30428 489.864 3.42417 489.598 4.63993C489.18 4.75386 488.63 4.81083 487.946 4.81083L487.235 2.1834H473.641Z" fill="#121212"/>
<path d="M421.415 2.50997C420.333 2.48635 418.838 3.09354 418.201 3.96889C415.531 7.6384 415.75 14.8385 419.441 17.2631C420.315 17.837 421.133 18.0259 422.231 18.0259C423.616 18.0259 447.304 17.8828 448.007 17.598C448.196 17.5035 448.473 17.3604 448.833 17.17L449.43 13.752L451.082 13.8368C451.367 15.7931 451.509 17.3784 451.509 18.5928C451.11 18.8971 450.251 19.2292 448.931 19.5891C447.611 19.9489 423.634 20.1309 422.286 20.1309C416.703 20.1309 413.912 16.6281 413.912 9.62119C413.912 6.29903 414.568 4.93316 415.927 3.20469C417.284 1.47762 419.475 0.147975 422.457 0.147975C424.85 0.147975 450.037 -0.616285 451.496 1.32894C451.496 2.39186 451.346 4.55389 451.081 6.18649C450.814 6.24346 450.264 6.27263 449.429 6.27263L448.574 2.74067L421.412 2.50858L421.415 2.50997Z" fill="#121212"/>
<path d="M385.016 0.213975C386.535 0.0722521 397.524 0 398.769 0C400.014 0 400.976 0.0569665 401.66 0.170901C401.678 0.24732 401.689 0.337635 401.689 0.441844C401.689 0.546052 401.636 0.511315 401.532 0.890633C401.428 1.27134 401.347 1.51727 401.29 1.6312C401.138 1.78265 398.773 1.89798 398.766 1.97301L411.007 18.0016L413.712 18.2295C413.712 18.7616 413.551 19.3313 413.229 19.9385H406.399L406.315 18.9423C406.751 18.7144 406.97 18.5143 407.806 18.3448L404.964 14.2723H378.549L375.373 18.1419L376.846 18.2309C376.846 18.763 376.685 19.3327 376.362 19.9399H369.811L369.726 18.9436C370.467 18.6783 371.255 18.4698 372.09 18.317L385.775 1.88964C384.085 1.70068 382.798 1.47281 382.115 1.20604L382.229 0.601628C382.57 0.487694 383.5 0.359865 385.02 0.216752L385.016 0.213975ZM379.869 12.448H403.615L396.543 2.05915C396.429 2.04109 388.485 2.02997 388.276 2.02997" fill="#121212"/>
<path d="M365.025 0.139526C367.436 0.139526 369.227 0.534129 370.394 1.32194C371.561 2.10976 372.146 3.50059 372.146 5.49444C372.146 7.48828 371.567 9.06947 370.409 10.2366C369.25 11.4037 367.38 11.9887 364.799 11.9887H341.842L341.756 18.1689L344.695 18.3676C344.695 18.8998 344.534 19.4694 344.211 20.0766H337.086L337.002 19.1082C337.799 18.8053 338.615 18.5774 339.451 18.4246C339.337 11.0189 339.241 5.5125 339.166 1.90551C338.654 1.81103 337.817 1.58316 336.66 1.2219L336.801 0.139526H365.027H365.025ZM368.243 8.89857C369.098 8.0913 369.524 7.02421 369.524 5.69452C369.524 4.36482 369.106 3.43945 368.271 2.91702C367.434 2.39459 366.096 2.13338 364.255 2.13338C363.914 2.13338 342.77 2.1431 341.955 2.16255C341.955 2.18201 341.926 4.84973 341.87 10.1657L364.512 10.1366C366.145 10.1185 367.389 9.70444 368.243 8.89718V8.89857Z" fill="#121212"/>
<path d="M328.783 2.10281L331.887 18.1384L334.578 18.394C334.578 18.9067 334.411 19.4 334.075 20.0072H327.672L327.582 19.0776C328.174 18.8317 328.903 18.6316 329.771 18.4802L325.758 2.50158L315.263 18.6191H312.195L301.286 2.44461L298.607 18.1384L301.12 18.3662C301.12 18.8984 300.953 19.4014 300.617 20.0085H293.817L293.728 19.079C294.596 18.7761 295.462 18.5482 296.33 18.3954L298.932 1.87633C297.728 1.70543 296.773 1.50535 296.064 1.27887L296.183 0.139526H303.213L313.585 16.396H313.704L324.528 0.139526H331.15C331.485 0.748102 331.652 1.33584 331.652 1.90551C330.371 2.03889 329.414 2.1042 328.784 2.1042L328.783 2.10281Z" fill="#121212"/>
<path d="M274.677 1.95625L274.399 18.0783L291.452 18.3054C291.452 18.8357 291.295 19.4034 290.981 20.0085H255.962L255.878 19.0157C256.728 18.7139 271.488 18.4868 272.319 18.3344C272.282 17.1048 272.222 14.5695 272.14 10.7269C272.057 6.88577 271.987 3.91421 271.931 1.81362C271.192 1.66269 256.442 1.4356 255.518 1.13235L255.601 0.139526H291.173C291.487 0.746024 291.644 1.31375 291.644 1.8427C290.701 1.91886 275.23 1.95625 274.675 1.95625H274.677Z" fill="#121212"/>
</svg>
